<svg width="194" height="75" viewBox="0 0 194 75" fill="none" xmlns="http://www.w3.org/2000/svg">
<path d="M91.606 33.86C90.442 33.86 89.404 33.584 88.492 33.032C87.592 32.48 86.896 31.724 86.404 30.764C85.912 29.804 85.666 28.736 85.666 27.56C85.666 26.384 85.912 25.316 86.404 24.356C86.896 23.396 87.592 22.64 88.492 22.088C89.404 21.536 90.442 21.26 91.606 21.26C92.77 21.26 93.802 21.536 94.702 22.088C95.602 22.64 96.298 23.396 96.79 24.356C97.282 25.316 97.528 26.384 97.528 27.56C97.528 28.736 97.282 29.804 96.79 30.764C96.298 31.724 95.602 32.48 94.702 33.032C93.802 33.584 92.77 33.86 91.606 33.86ZM91.606 33.05C92.698 33.05 93.544 32.576 94.144 31.628C94.744 30.668 95.044 29.312 95.044 27.56C95.044 25.808 94.744 24.458 94.144 23.51C93.544 22.55 92.698 22.07 91.606 22.07C90.514 22.07 89.668 22.55 89.068 23.51C88.48 24.458 88.186 25.808 88.186 27.56C88.186 29.312 88.48 30.668 89.068 31.628C89.668 32.576 90.514 33.05 91.606 33.05ZM103.097 22.43H101.819C101.147 22.43 100.631 22.598 100.271 22.934C99.9232 23.27 99.7492 23.822 99.7492 24.59H99.2092V23.06C99.2092 22.1 99.7192 21.62 100.739 21.62H109.199V22.43H105.437V33.5H103.097V22.43ZM111.705 23.96C111.705 23.348 111.621 22.898 111.453 22.61C111.285 22.31 110.949 22.16 110.445 22.16H110.265V21.62H115.125C116.637 21.62 117.897 21.83 118.905 22.25C119.925 22.67 120.435 23.51 120.435 24.77C120.435 25.322 120.213 25.844 119.769 26.336C119.337 26.816 118.725 27.158 117.933 27.362C119.961 27.566 120.975 28.514 120.975 30.206C120.975 31.454 120.477 32.318 119.481 32.798C118.485 33.266 117.213 33.5 115.665 33.5H111.705V23.96ZM115.395 27.002C116.175 27.002 116.787 26.822 117.231 26.462C117.687 26.09 117.915 25.496 117.915 24.68C117.915 23.852 117.645 23.258 117.105 22.898C116.577 22.526 115.917 22.34 115.125 22.34C114.813 22.34 114.453 22.382 114.045 22.466V27.002H115.395ZM115.395 32.78C116.391 32.78 117.147 32.564 117.663 32.132C118.191 31.7 118.455 31.088 118.455 30.296C118.455 28.64 117.435 27.812 115.395 27.812H114.045V32.6C114.465 32.72 114.915 32.78 115.395 32.78ZM124.009 23.96C124.009 23.348 123.925 22.898 123.757 22.61C123.589 22.31 123.253 22.16 122.749 22.16H122.569V21.62H130.507C131.527 21.62 132.037 22.1 132.037 23.06V24.59H131.497C131.497 23.846 131.305 23.3 130.921 22.952C130.549 22.604 129.991 22.43 129.247 22.43H126.349V26.93H131.029V27.74H126.349V32.69H129.427C130.111 32.69 130.681 32.54 131.137 32.24C131.593 31.928 131.971 31.394 132.271 30.638L132.757 30.818L132.235 32.24C132.079 32.672 131.893 32.99 131.677 33.194C131.461 33.398 131.125 33.5 130.669 33.5H124.009V23.96ZM137.988 22.43H136.71C136.038 22.43 135.522 22.598 135.162 22.934C134.814 23.27 134.64 23.822 134.64 24.59H134.1V23.06C134.1 22.1 134.61 21.62 135.63 21.62H144.09V22.43H140.328V33.5H137.988V22.43ZM146.595 23.96C146.595 23.348 146.511 22.898 146.343 22.61C146.175 22.31 145.839 22.16 145.335 22.16H145.155V21.62H147.315C147.747 21.62 148.077 21.692 148.305 21.836C148.533 21.98 148.695 22.22 148.791 22.556C148.887 22.88 148.935 23.348 148.935 23.96V26.48H150.375C151.899 26.48 153.165 26.744 154.173 27.272C155.181 27.8 155.685 28.706 155.685 29.99C155.685 31.274 155.181 32.18 154.173 32.708C153.165 33.236 151.899 33.5 150.375 33.5H146.595V23.96ZM158.547 33.5C158.115 33.5 157.785 33.434 157.557 33.302C157.329 33.158 157.167 32.924 157.071 32.6C156.975 32.264 156.927 31.784 156.927 31.16V21.62H159.267V31.16C159.267 31.772 159.351 32.228 159.519 32.528C159.687 32.816 160.023 32.96 160.527 32.96H160.707V33.5H158.547ZM150.105 32.78C151.161 32.78 151.935 32.546 152.427 32.078C152.919 31.61 153.165 30.914 153.165 29.99C153.165 29.066 152.919 28.37 152.427 27.902C151.935 27.434 151.161 27.2 150.105 27.2C149.805 27.2 149.415 27.26 148.935 27.38V32.6C149.055 32.648 149.235 32.69 149.475 32.726C149.727 32.762 149.937 32.78 150.105 32.78Z" fill="#C19C79"/>
<path d="M96.304 58.572C95.548 58.572 94.864 58.416 94.252 58.104C93.64 57.78 93.142 57.156 92.758 56.232L92.344 55.224H87.556L86.08 58.5H85.144L90.454 46.62H91.264L95.296 56.232C95.752 57.348 96.376 57.948 97.168 58.032V58.482C96.952 58.542 96.664 58.572 96.304 58.572ZM92.002 54.414L90.022 49.716L87.934 54.414H92.002ZM103.681 58.86C102.445 58.86 101.377 58.596 100.477 58.068C99.5895 57.528 98.9115 56.796 98.4435 55.872C97.9755 54.948 97.7415 53.904 97.7415 52.74C97.7415 51.54 97.9995 50.448 98.5155 49.464C99.0315 48.468 99.7395 47.688 100.639 47.124C101.551 46.548 102.565 46.26 103.681 46.26C104.737 46.26 105.619 46.398 106.327 46.674C107.035 46.938 107.575 47.286 107.947 47.718C108.163 47.994 108.295 48.336 108.343 48.744C108.391 49.152 108.415 49.722 108.415 50.454H107.875C107.647 49.35 107.227 48.51 106.615 47.934C106.003 47.358 105.205 47.07 104.221 47.07C102.997 47.07 102.031 47.502 101.323 48.366C100.615 49.23 100.261 50.688 100.261 52.74C100.261 54.264 100.585 55.53 101.233 56.538C101.881 57.546 102.877 58.05 104.221 58.05C105.061 58.05 105.829 57.828 106.525 57.384C107.233 56.94 107.803 56.304 108.235 55.476L108.865 55.962C108.289 56.97 107.593 57.708 106.777 58.176C105.961 58.632 104.929 58.86 103.681 58.86ZM114.188 47.43H112.91C112.238 47.43 111.722 47.598 111.362 47.934C111.014 48.27 110.84 48.822 110.84 49.59H110.3V48.06C110.3 47.1 110.81 46.62 111.83 46.62H120.29V47.43H116.528V58.5H114.188V47.43ZM122.796 48.96C122.796 48.348 122.712 47.898 122.544 47.61C122.376 47.31 122.04 47.16 121.536 47.16H121.356V46.62H126.306C127.542 46.62 128.658 46.866 129.654 47.358C130.662 47.838 131.166 48.798 131.166 50.238C131.166 51.174 130.902 51.9 130.374 52.416C129.858 52.932 129.276 53.274 128.628 53.442C127.98 53.61 127.386 53.694 126.846 53.694H125.136V58.5H122.796V48.96ZM126.216 52.974C126.924 52.974 127.506 52.758 127.962 52.326C128.418 51.894 128.646 51.168 128.646 50.148C128.646 49.14 128.418 48.42 127.962 47.988C127.518 47.556 126.966 47.34 126.306 47.34C125.958 47.34 125.568 47.382 125.136 47.466V52.974H126.216ZM138.8 58.86C137.636 58.86 136.598 58.584 135.686 58.032C134.786 57.48 134.09 56.724 133.598 55.764C133.106 54.804 132.86 53.736 132.86 52.56C132.86 51.384 133.106 50.316 133.598 49.356C134.09 48.396 134.786 47.64 135.686 47.088C136.598 46.536 137.636 46.26 138.8 46.26C139.964 46.26 140.996 46.536 141.896 47.088C142.796 47.64 143.492 48.396 143.984 49.356C144.476 50.316 144.722 51.384 144.722 52.56C144.722 53.736 144.476 54.804 143.984 55.764C143.492 56.724 142.796 57.48 141.896 58.032C140.996 58.584 139.964 58.86 138.8 58.86ZM138.8 58.05C139.892 58.05 140.738 57.576 141.338 56.628C141.938 55.668 142.238 54.312 142.238 52.56C142.238 50.808 141.938 49.458 141.338 48.51C140.738 47.55 139.892 47.07 138.8 47.07C137.708 47.07 136.862 47.55 136.262 48.51C135.674 49.458 135.38 50.808 135.38 52.56C135.38 54.312 135.674 55.668 136.262 56.628C136.862 57.576 137.708 58.05 138.8 58.05ZM146.665 58.77C146.269 58.77 145.909 58.716 145.585 58.608V58.05C146.173 57.93 146.671 57.612 147.079 57.096C147.487 56.58 147.811 55.68 148.051 54.396C148.303 53.1 148.429 51.288 148.429 48.96C148.429 48.348 148.345 47.898 148.177 47.61C148.009 47.31 147.673 47.16 147.169 47.16H146.989V46.62H156.619V58.5H154.279V47.43H150.391V48.96C150.391 52.56 150.061 55.098 149.401 56.574C148.753 58.038 147.841 58.77 146.665 58.77ZM165.272 58.86C164.108 58.86 163.07 58.584 162.158 58.032C161.258 57.48 160.562 56.724 160.07 55.764C159.578 54.804 159.332 53.736 159.332 52.56C159.332 51.384 159.578 50.316 160.07 49.356C160.562 48.396 161.258 47.64 162.158 47.088C163.07 46.536 164.108 46.26 165.272 46.26C166.436 46.26 167.468 46.536 168.368 47.088C169.268 47.64 169.964 48.396 170.456 49.356C170.948 50.316 171.194 51.384 171.194 52.56C171.194 53.736 170.948 54.804 170.456 55.764C169.964 56.724 169.268 57.48 168.368 58.032C167.468 58.584 166.436 58.86 165.272 58.86ZM165.272 58.05C166.364 58.05 167.21 57.576 167.81 56.628C168.41 55.668 168.71 54.312 168.71 52.56C168.71 50.808 168.41 49.458 167.81 48.51C167.21 47.55 166.364 47.07 165.272 47.07C164.18 47.07 163.334 47.55 162.734 48.51C162.146 49.458 161.852 50.808 161.852 52.56C161.852 54.312 162.146 55.668 162.734 56.628C163.334 57.576 164.18 58.05 165.272 58.05ZM174.191 48.96C174.191 48.348 174.107 47.898 173.939 47.61C173.771 47.31 173.435 47.16 172.931 47.16H172.751V46.62H180.473C181.493 46.62 182.003 47.1 182.003 48.06V49.59H181.463C181.463 48.834 181.271 48.288 180.887 47.952C180.515 47.604 179.957 47.43 179.213 47.43H176.531V58.5H174.191V48.96ZM192.855 58.572C192.099 58.572 191.415 58.416 190.803 58.104C190.191 57.78 189.693 57.156 189.309 56.232L188.895 55.224H184.107L182.631 58.5H181.695L187.005 46.62H187.815L191.847 56.232C192.303 57.348 192.927 57.948 193.719 58.032V58.482C193.503 58.542 193.215 58.572 192.855 58.572ZM188.553 54.414L186.573 49.716L184.485 54.414H188.553Z" fill="#E9E9E9"/>
<path fill-rule="evenodd" clip-rule="evenodd" d="M35 75C54.33 75 70 59.33 70 40C70 38.7234 69.9317 37.4628 69.7984 36.2216C68.2147 48.784 57.492 58.5 44.5 58.5C30.4167 58.5 19 47.0833 19 33C19 18.9167 30.4167 7.5 44.5 7.5C46.0132 7.5 47.4955 7.6318 48.9363 7.88454C44.6659 6.02887 39.9531 5 35 5C15.67 5 0 20.67 0 40C0 59.33 15.67 75 35 75Z" fill="#C19C79"/>
<g filter="url(#filter0_d_17_3190)">
<path d="M59.5 15.5L60.4652 22.0348L67 23L60.4652 23.9652L59.5 30.5L58.5348 23.9652L52 23L58.5348 22.0348L59.5 15.5Z" fill="#E9E9E9"/>
</g>
<defs>
<filter id="filter0_d_17_3190" x="37" y="0.5" width="45" height="45" filterUnits="userSpaceOnUse" color-interpolation-filters="sRGB">
<feFlood flood-opacity="0" result="BackgroundImageFix"/>
<feColorMatrix in="SourceAlpha" type="matrix" values="0 0 0 0 0 0 0 0 0 0 0 0 0 0 0 0 0 0 127 0" result="hardAlpha"/>
<feOffset/>
<feGaussianBlur stdDeviation="7.5"/>
<feComposite in2="hardAlpha" operator="out"/>
<feColorMatrix type="matrix" values="0 0 0 0 1 0 0 0 0 1 0 0 0 0 1 0 0 0 1 0"/>
<feBlend mode="normal" in2="BackgroundImageFix" result="effect1_dropShadow_17_3190"/>
<feBlend mode="normal" in="SourceGraphic" in2="effect1_dropShadow_17_3190" result="shape"/>
</filter>
</defs>
</svg>
