<svg width="40" height="40" viewBox="0 0 40 40" fill="none" xmlns="http://www.w3.org/2000/svg">
<path d="M40 20C40 14.6957 37.8929 9.60859 34.1421 5.85786C30.3914 2.10714 25.3043 0 20 0C14.6957 0 9.60859 2.10714 5.85786 5.85786C2.10714 9.60859 0 14.6957 0 20C0 25.3043 2.10714 30.3914 5.85786 34.1421C9.60859 37.8929 14.6957 40 20 40C25.3043 40 30.3914 37.8929 34.1421 34.1421C37.8929 30.3914 40 25.3043 40 20ZM18.77 17.275C18.8222 16.9868 18.9739 16.7261 19.1987 16.5383C19.4235 16.3506 19.7071 16.2477 20 16.2477C20.2929 16.2477 20.5765 16.3506 20.8013 16.5383C21.0261 16.7261 21.1778 16.9868 21.23 17.275L21.25 17.5V28.755L21.23 28.98C21.1778 29.2682 21.0261 29.5289 20.8013 29.7167C20.5765 29.9044 20.2929 30.0073 20 30.0073C19.7071 30.0073 19.4235 29.9044 19.1987 29.7167C18.9739 29.5289 18.8222 29.2682 18.77 28.98L18.75 28.755V17.5L18.77 17.275ZM18.125 11.875C18.125 11.3777 18.3225 10.9008 18.6742 10.5492C19.0258 10.1975 19.5027 10 20 10C20.4973 10 20.9742 10.1975 21.3258 10.5492C21.6775 10.9008 21.875 11.3777 21.875 11.875C21.875 12.3723 21.6775 12.8492 21.3258 13.2008C20.9742 13.5525 20.4973 13.75 20 13.75C19.5027 13.75 19.0258 13.5525 18.6742 13.2008C18.3225 12.8492 18.125 12.3723 18.125 11.875Z" fill="#C19C79"/>
</svg>
