<svg width="40" height="40" viewBox="0 0 40 40" fill="none" xmlns="http://www.w3.org/2000/svg">
<path d="M25.1216 3.33325H14.895C5.55498 3.33325 3.33331 5.55492 3.33331 14.8783V25.1049C3.33331 34.4433 5.53831 36.6666 14.8783 36.6666H25.105C34.4433 36.6666 36.6666 34.4616 36.6666 25.1216V14.8949C36.6666 5.55492 34.4616 3.33325 25.1216 3.33325ZM30.2433 27.1166H27.8116C26.8916 27.1166 26.615 26.3716 24.965 24.7216C23.525 23.3333 22.9166 23.1599 22.5516 23.1599C22.0483 23.1599 21.91 23.2983 21.91 23.9933V26.1799C21.91 26.7716 21.7183 27.1183 20.1733 27.1183C18.6739 27.0175 17.2199 26.5619 15.931 25.7891C14.6421 25.0163 13.5553 23.9484 12.76 22.6733C10.8719 20.3232 9.55822 17.5651 8.92331 14.6183C8.92331 14.2533 9.06165 13.9233 9.75665 13.9233H12.1866C12.8116 13.9233 13.0366 14.2016 13.2816 14.8433C14.4616 18.3166 16.475 21.3366 17.2916 21.3366C17.605 21.3366 17.7416 21.1983 17.7416 20.4166V16.8399C17.6383 15.2083 16.7716 15.0699 16.7716 14.4799C16.7828 14.3243 16.8541 14.1791 16.9705 14.0752C17.0868 13.9713 17.2391 13.9168 17.395 13.9233H21.215C21.7366 13.9233 21.91 14.1833 21.91 14.8083V19.6349C21.91 20.1566 22.135 20.3299 22.2916 20.3299C22.605 20.3299 22.8466 20.1566 23.42 19.5833C24.6514 18.0815 25.6575 16.4084 26.4066 14.6166C26.4832 14.4014 26.6281 14.2171 26.8192 14.0919C27.0103 13.9667 27.2371 13.9075 27.465 13.9233H29.8966C30.625 13.9233 30.78 14.2883 30.625 14.8083C29.7408 16.789 28.6468 18.6692 27.3616 20.4166C27.1 20.8166 26.995 21.0249 27.3616 21.4933C27.6033 21.8583 28.455 22.5699 29.0283 23.2466C29.8615 24.0777 30.5534 25.0392 31.0766 26.0933C31.285 26.7699 30.9366 27.1183 30.2433 27.1183V27.1166Z" fill="#E9E9E9"/>
</svg>
